# xmcd CD database file
#
# Track frame offsets:
#	150
#	14938
#	30699
#	45668
#	63691
#	77825
#	95213
#	112777
#	130922
#
# Disc length: 1988 seconds
#
# Revision: 0
# Processed by: cddbd v1.5.2PL0 Copyright (c) Steve Scherf et al.
# Submitted via: CDex 2.23
#
DISCID=7c07c209
DTITLE=Piere Michelot  - Round About a bass
DYEAR=1963
DGENRE=Jazz
TTITLE0=Cherokee
TTITLE1=Gavotte
TTITLE2=Akkilino
TTITLE3=Elephant green
TTITLE4=Sous les ponts de Paris
TTITLE5=Chet
TTITLE6=Bye Bye Blackbird
TTITLE7=Sweet feeling
TTITLE8=Klook's Shadow
EXTD=YEAR: 1963
EXTT0=
EXTT1=
EXTT2=
EXTT3=
EXTT4=
EXTT5=
EXTT6=
EXTT7=
EXTT8=
PLAYORDER=
